<?xml version="1.0" encoding="utf-8"?>
<!-- Generator: Adobe Illustrator 25.0.0, SVG Export Plug-In . SVG Version: 6.00 Build 0)  -->
<svg version="1.1" id="Capa_1" xmlns="http://www.w3.org/2000/svg" xmlns:xlink="http://www.w3.org/1999/xlink" x="0px" y="0px"
	 viewBox="0 0 700 700" style="enable-background:new 0 0 700 700;" xml:space="preserve">
<style type="text/css">
	.st0{fill-rule:evenodd;clip-rule:evenodd;fill:#121212;}
</style>
<path class="st0" d="M391,571.9H33.5c0,0-8.8-24.4-11-44.4c-4.4-39.9,24.3-59.9,64-75.4c46.3-17.8,105.9-53.2,134.5-64.3l4.4-33.3
	c-17.6-20-19.8-35.5-26.5-66.6c-6.6-4.4-11-8.9-13.2-15.5l-8.8-51c0-6.7,4.4-13.3,8.8-17.8c0-77.7,30.9-126.5,114.7-126.5
	s114.7,48.8,114.7,126.5c6.6,4.4,11,11.1,8.8,17.8l-8.8,51c-2.2,6.7-6.6,13.3-13.2,15.5c-8.8,28.8-11,46.6-26.5,66.6l4.4,33.3
	c14.2,5.5,36.6,17,60.9,29.4C408.6,429.5,374,447,371.4,500C369.9,528.7,377.5,552.7,391,571.9L391,571.9z M559.1,621
	c-73.9,11-170.4-25.8-166.1-117.4c4.3-89.3,109.4-66.4,112.3-111.2c1.4-22-13-36.3-35.5-62.1c-8.2-9.1,176.2,31,204,143.7
	C693.5,554.2,641.7,608.6,559.1,621L559.1,621z M527.7,471.6h26.4v85.5h-26.4V471.6z M525.6,444.6c0-4.2,1.5-7.8,4.5-10.8
	s6.6-4.5,10.8-4.5s7.8,1.5,10.8,4.5s4.5,6.6,4.5,10.8c0,4.2-1.5,7.8-4.5,10.8s-6.6,4.5-10.8,4.5s-7.8-1.5-10.8-4.5
	C527.1,452.5,525.6,448.9,525.6,444.6z"/>
</svg>
