<?xml version="1.0" encoding="utf-8"?>
<!-- Generator: Adobe Illustrator 25.0.0, SVG Export Plug-In . SVG Version: 6.00 Build 0)  -->
<svg version="1.1" id="Capa_1" xmlns="http://www.w3.org/2000/svg" xmlns:xlink="http://www.w3.org/1999/xlink" x="0px" y="0px"
	 viewBox="0 0 150 150" style="enable-background:new 0 0 150 150;" xml:space="preserve">
<style type="text/css">
	.st0{fill:#D0B87C;}
</style>
<path class="st0" d="M109.7,43.4c-0.5-1-1.3-1.7-2.2-2.2L62.7,14.9c-1.6-1.1-4.2-1.1-6-0.1l-17,9.9c-0.2,0.2-0.5,0.4-0.7,0.6
	c-0.9,1-1.4,2.3-1.4,3.6l0,32.8l-0.1,1.1l0.3,0.6c0.2,0.4,0.6,0.8,1,1c0.8,0.6,1.9,0.6,2.8,0.1L58.3,55c0.4-0.2,0.7-0.5,0.9-0.9
	l0.4-0.8V37.2l11.3,6.6l17.7,10.4c0.4,0.2,0.6,0.5,0.8,0.9c0.2,0.3,0.3,0.7,0.3,1.1v35.3c0,0.5-0.1,0.9-0.4,1.3
	c-0.2,0.4-0.4,0.6-0.8,0.8l-21.1,12.4l-7.9,4.6V94.5l9.8-5.9l5.2-3.1l0.9-0.9l0.1-0.3c0.2-0.4,0.3-0.8,0.3-1.2V64
	c0-0.5-0.2-1-0.5-1.4L75.1,62l-0.7-0.4c-0.5-0.2-0.9-0.2-1.2-0.2l-0.9,0.1L40.5,80.8c-0.9,0.5-1.7,1.3-2.2,2.3c-0.5,0.9-0.7,2-0.7,3
	v32.8c0,1.3,0.5,2.6,1.6,3.8c0.4,0.3,0.8,0.6,1.2,0.8l16.7,9.7c0.9,0.6,1.9,0.8,3,0.8c1.1,0,2.1-0.3,3-0.8l44.4-26.1
	c1-0.5,1.8-1.3,2.2-2.2c0.6-0.9,0.8-2,0.8-3.1V46.4C110.5,45.4,110.2,44.3,109.7,43.4z"/>
<path class="st0" d="M55.9,52.1l-14.7,8.5V29c0-0.4,0.2-0.8,0.5-1.1l1.1-0.6l13.2,7.8C55.9,35.1,55.9,52.1,55.9,52.1z"/>
<path class="st0" d="M41.2,86.1c0-0.5,0.1-0.9,0.3-1.4c0.2-0.4,0.5-0.7,0.9-0.9l29.9-18.1v17l-4.8,2.9l-11.6,6.9l-14.7,8.9
	L41.2,86.1L41.2,86.1z"/>
<path class="st0" d="M41.2,118.9v-13.3l14.7-8.8v16.1l-13.2,7.8l-0.5-0.3c-0.3-0.2-0.5-0.3-0.5-0.3
	C41.4,119.6,41.2,119.3,41.2,118.9z"/>
<path class="st0" d="M106.8,101.9c0,0.5-0.1,0.9-0.4,1.3c-0.2,0.3-0.5,0.6-0.8,0.8l-44.5,26.1c-0.7,0.5-1.6,0.5-2.3,0l-12.5-7.4
	l22.9-13.5v-0.1l21.1-12.4c0.9-0.5,1.7-1.3,2.2-2.2c0.6-0.9,0.9-2,0.9-3V56.3c0-1.1-0.3-2.1-0.8-3c-0.5-0.9-1.3-1.7-2.2-2.2
	L72.7,40.7l-16.8-9.9l-9.6-5.7L58.6,18c0.7-0.4,1.6-0.4,2.3,0l44.9,26.5c0.3,0.2,0.6,0.4,0.8,0.8c0.2,0.4,0.3,0.8,0.3,1.2V101.9z"/>
</svg>
