<?xml version="1.0" encoding="utf-8"?>
<!-- Generator: Adobe Illustrator 25.0.0, SVG Export Plug-In . SVG Version: 6.00 Build 0)  -->
<svg version="1.1" id="Capa_1" xmlns="http://www.w3.org/2000/svg" xmlns:xlink="http://www.w3.org/1999/xlink" x="0px" y="0px"
	 viewBox="0 0 150 150" style="enable-background:new 0 0 150 150;" xml:space="preserve">
<style type="text/css">
	.st0{fill:#828282;}
</style>
<path class="st0" d="M133.3,124.7l-8.5,8.5c-2.3,2.3-6.1,2.3-8.5,0L45,62.1c-2,0.6-4,0.9-6,0.9c-13.3,0-24-10.8-24-24
	c0-2.6,0.4-5.3,1.3-7.8l15.2,15.2l3.2-3.2l8.5-8.5l3.2-3.2L31.2,16.3c12.5-4.3,26.2,2.4,30.5,14.9c0.9,2.5,1.3,5.1,1.3,7.8
	c0,2-0.3,4-0.9,6l71.2,71.3C135.6,118.6,135.6,122.4,133.3,124.7 M16.7,116.3c-2.3,2.3-2.3,6.1,0,8.5l8.5,8.5c2.3,2.3,6.1,2.3,8.5,0
	l32.8-32.8l-17-17 M123,15L99,27v12L86,52l12,12l13-13h12l12-24L123,15z"/>
</svg>
