<?xml version="1.0" encoding="utf-8"?>
<!-- Generator: Adobe Illustrator 25.0.0, SVG Export Plug-In . SVG Version: 6.00 Build 0)  -->
<svg version="1.1" id="Capa_2_1_" xmlns="http://www.w3.org/2000/svg" xmlns:xlink="http://www.w3.org/1999/xlink" x="0px" y="0px"
	 viewBox="0 0 550 600" style="enable-background:new 0 0 550 600;" xml:space="preserve">
<style type="text/css">
	.st0{fill-rule:evenodd;clip-rule:evenodd;fill:#A9B9CB;}
	.st1{fill-rule:evenodd;clip-rule:evenodd;fill:#7F8B99;}
	.st2{fill-rule:evenodd;clip-rule:evenodd;fill:#FFFFFF;}
</style>
<g>
	<path class="st0" d="M497.2,197c0-8.4-1.8-15.8-5.4-22.2c-3.6-6.3-8.9-11.5-16.1-15.7C416.5,125,357.3,90.9,298.1,56.7
		c-15.9-9.2-31.4-8.9-47.2,0.5c-23.6,13.9-141.5,81.5-176.6,101.9c-14.5,8.4-21.5,21.2-21.5,37.9c0,68.7,0,137.4,0,206
		c0,8.2,1.7,15.5,5.2,21.8c3.6,6.5,9,11.9,16.3,16.1c35.1,20.4,153.1,88,176.6,101.9c15.8,9.4,31.3,9.7,47.2,0.5
		c59.2-34.2,118.4-68.2,177.6-102.4c7.3-4.2,12.8-9.7,16.3-16.1c3.5-6.3,5.2-13.6,5.2-21.8C497.2,403,497.2,265.7,497.2,197z"/>
	<path class="st1" d="M297.7,57.2c-15.9-9.2-31.4-8.9-47.2,0.5C227.1,71.5,109.4,139,74.3,159.3c-14.4,8.4-21.5,21.2-21.5,37.8
		c0,68.5,0,137,0,205.5c0,8.2,1.7,15.5,5.2,21.7c3.6,6.4,9,11.8,16.3,16.1c8,4.7,20.4,11.8,35,20.2l324.8-324.8
		C388.6,109.6,343.2,83.4,297.7,57.2z"/>
	<path class="st2" d="M320.9,268.7l69.2,0.5c0-28.8-29.2-99.4-112.8-99.4c-53.3,0-124.9,33.9-124.9,131.3s70.2,129.1,124.9,129.1
		c88.6,0,109.7-61.3,109.7-95.9l-66-3.8c0,0,1.8,40.1-44.1,40.1c-42.3,0-49.4-51.9-49.4-69.5c0-26.8,9.5-69.9,49.4-69.9
		C316.8,231.2,320.9,268.7,320.9,268.7z"/>
</g>
</svg>
