<?xml version="1.0" encoding="utf-8"?>
<!-- Generator: Adobe Illustrator 25.0.0, SVG Export Plug-In . SVG Version: 6.00 Build 0)  -->
<svg version="1.1" xmlns="http://www.w3.org/2000/svg" xmlns:xlink="http://www.w3.org/1999/xlink" x="0px" y="0px"
	 viewBox="0 0 24 24" style="enable-background:new 0 0 24 24;" xml:space="preserve">
<style type="text/css">
	.st0{fill:#FFFFFF;}
	.st1{fill:#F70606;}
	.st2{fill:none;}
</style>
<g id="Capa_2">
	<rect x="5.7" y="6.3" class="st0" width="12.7" height="11.6"/>
</g>
<g id="Layer_1">
	<path class="st1" d="M18.3,4.1H5.7c-0.9,0-1.6,0.7-1.6,1.6v12.6c0,0.9,0.7,1.6,1.6,1.6h12.6c0.9,0,1.6-0.7,1.6-1.6V5.7
		C19.9,4.8,19.2,4.1,18.3,4.1z M15.9,14.8l-1.1,1.1L12,13.2l-2.8,2.8l-1.1-1.1l2.8-2.8L8.1,9.2l1.1-1.1l2.8,2.8l2.8-2.8l1.1,1.1
		L13.1,12L15.9,14.8z"/>
	<rect class="st2" width="24" height="24"/>
</g>
</svg>
