<?xml version="1.0" encoding="utf-8"?>
<!-- Generator: Adobe Illustrator 25.0.0, SVG Export Plug-In . SVG Version: 6.00 Build 0)  -->
<svg version="1.1" id="Capa_1" xmlns="http://www.w3.org/2000/svg" xmlns:xlink="http://www.w3.org/1999/xlink" x="0px" y="0px"
	 viewBox="0 0 150 150" style="enable-background:new 0 0 150 150;" xml:space="preserve">
<style type="text/css">
	.st0{fill:#A179DC;}
	.st1{fill:#280068;}
	.st2{fill:#390091;}
	.st3{fill:#FFFFFF;}
</style>
<g>
	<path class="st0" d="M137.3,46.2c0-2.4-0.5-4.4-1.5-6.2c-1-1.8-2.5-3.2-4.5-4.4C114.7,26,98.1,16.5,81.5,6.9
		C77,4.3,72.7,4.4,68.2,7c-6.6,3.9-39.6,22.8-49.5,28.5c-4.1,2.3-6,5.9-6,10.6c0,19.2,0,38.5,0,57.7c0,2.3,0.5,4.3,1.5,6.1
		c1,1.8,2.5,3.3,4.6,4.5c9.8,5.7,42.9,24.6,49.5,28.5c4.4,2.6,8.8,2.7,13.2,0.1c16.6-9.6,33.2-19.1,49.8-28.7
		c2.1-1.2,3.6-2.7,4.6-4.5c1-1.8,1.5-3.8,1.5-6.1C137.3,103.8,137.3,65.4,137.3,46.2"/>
	<path class="st1" d="M75.2,74.8l-61,35.1c1,1.8,2.5,3.3,4.6,4.5c9.8,5.7,42.9,24.6,49.5,28.5c4.4,2.6,8.8,2.7,13.2,0.1
		c16.6-9.6,33.2-19.1,49.8-28.7c2.1-1.2,3.6-2.7,4.6-4.5L75.2,74.8z"/>
	<path class="st2" d="M137.3,46.2c0-2.4-0.5-4.4-1.5-6.2L75.2,74.8l60.6,35.1c1-1.8,1.5-3.8,1.5-6.1
		C137.3,103.8,137.3,65.4,137.3,46.2"/>
	<g>
		<path class="st3" d="M111.1,61.7v6.6h6.6v-6.6h3.3v6.6h6.6v3.3H121v6.6h6.6v3.3H121v6.6h-3.3v-6.6h-6.6v6.6h-3.3v-6.6h-6.6v-3.3
			h6.6v-6.6h-6.6v-3.3h6.6v-6.6L111.1,61.7z M117.7,71.5h-6.6v6.6h6.6V71.5z"/>
		<path class="st3" d="M75.3,28.7c17.1,0,32.1,9.3,40.1,23.1l-0.1-0.1L95.2,63.3c-4-6.7-11.2-11.3-19.6-11.4l-0.3,0
			c-12.7,0-23.1,10.3-23.1,23.1c0,4,1,8,3,11.4c4,6.9,11.4,11.6,20,11.6c8.6,0,16.1-4.7,20.1-11.8l-0.1,0.2l20.1,11.7
			c-7.9,13.7-22.7,23-39.6,23.2l-0.5,0c-17.2,0-32.2-9.4-40.2-23.3C31.3,91.3,29,83.4,29,75C29,49.4,49.8,28.7,75.3,28.7L75.3,28.7z
			"/>
	</g>
</g>
</svg>
