<?xml version="1.0" encoding="utf-8"?>
<!-- Generator: Adobe Illustrator 25.0.0, SVG Export Plug-In . SVG Version: 6.00 Build 0)  -->
<svg version="1.1" xmlns="http://www.w3.org/2000/svg" xmlns:xlink="http://www.w3.org/1999/xlink" x="0px" y="0px"
	 viewBox="0 0 550 600" style="enable-background:new 0 0 550 600;" xml:space="preserve">
<style type="text/css">
	.st0{fill:#00979C;}
	.st1{fill:#FFFFFF;}
</style>
<g id="Capa_3">
	<path class="st0" d="M427.2,501.2H122.8c-27.1,0-49-21.9-49-49V147.8c0-27.1,21.9-49,49-49h304.4c27.1,0,49,21.9,49,49v304.4
		C476.2,479.2,454.2,501.2,427.2,501.2z"/>
</g>
<g id="Capa_2">
	<polygon class="st1" points="147.1,172.3 260.2,172.3 260.2,239.8 212.8,239.8 212.8,362 260.2,362 260.2,427.7 149.5,427.7 	"/>
	<polygon class="st1" points="402.9,172.3 289.8,172.3 289.8,239.8 337.2,239.8 337.2,362 289.8,362 289.8,427.7 400.5,427.7 	"/>
</g>
</svg>
