<?xml version="1.0" encoding="utf-8"?>
<!-- Generator: Adobe Illustrator 25.0.0, SVG Export Plug-In . SVG Version: 6.00 Build 0)  -->
<svg version="1.1" id="Capa_1" xmlns="http://www.w3.org/2000/svg" xmlns:xlink="http://www.w3.org/1999/xlink" x="0px" y="0px"
	 viewBox="0 0 150 150" style="enable-background:new 0 0 150 150;" xml:space="preserve">
<style type="text/css">
	.st0{fill:#E50043;}
</style>
<g>
	<g>
		<g>
			<path class="st0" d="M126.9,15.1H24.8v78.5h102.1L126.9,15.1L126.9,15.1z M88,29.2L88,29.2L68.1,83.8l0,0
				c-1.1,3.1-4.5,4.6-7.6,3.5c-3.1-1.1-4.6-4.5-3.5-7.6l0,0l19.9-54.6c1.1-3.1,4.5-4.6,7.6-3.5C87.6,22.7,89.2,26.1,88,29.2
				 M69.7,29.2L69.7,29.2L58.1,61l0,0c-1.1,3.1-4.5,4.6-7.6,3.5c-3.1-1.1-4.6-4.5-3.5-7.6l0,0l11.6-31.8c1.1-3.1,4.5-4.6,7.6-3.5
				C69.2,22.7,70.8,26.1,69.7,29.2 M106.4,29.2L106.4,29.2L86.5,83.8l0,0c-1.1,3.1-4.5,4.6-7.6,3.5c-3.1-1.1-4.6-4.5-3.5-7.6l0,0
				l19.9-54.6c1.1-3.1,4.5-4.6,7.6-3.5C105.9,22.7,107.5,26.1,106.4,29.2"/>
		</g>
		<path class="st0" d="M58.3,118c0,0.5-0.1,1.6-0.1,1.6H34.1c0.3,5.8,2.9,8.6,8.2,8.6c3.5,0,6.6-2,7.3-4.4h8.1
			c-2.4,7.6-7.6,11.3-15.7,11.3c-10.6,0-17.1-7.3-17.1-17.7c0-10.1,7-17.8,17.1-17.8C52.5,99.7,58.3,108.1,58.3,118 M49,113.9
			c-0.9-5.1-3.1-7.1-7.4-7.1c-4.5,0-7.2,2.7-7.6,7.1H49z"/>
		<path d="M64.6,126.7h-4.1v-19.6h9c3.8,0,6.1,2.4,6.1,6.3c0,1.8-1,6.3-6.3,6.3h-4.7L64.6,126.7L64.6,126.7z M68.4,116.3
			c3.1,0,3.1-2.2,3.1-3.1c0-1.9-1.1-2.7-3.6-2.7h-3.2v5.8H68.4z"/>
		<polygon points="80.8,123.2 90.5,123.2 90.5,126.7 76.7,126.7 76.7,107.1 80.8,107.1 		"/>
		<path d="M95.7,126.7h-4.3l7-19.6h4.7l6.9,19.6h-4.5l-1.3-4H97L95.7,126.7z M98.1,119.3h5l-2.4-7.8h-0.1L98.1,119.3z"/>
		<polygon points="123,107.1 126.9,107.1 126.9,126.7 122.8,126.7 114.7,112.7 114.7,112.7 114.7,126.7 110.9,126.7 110.9,107.1 
			115.2,107.1 123,120.8 123,120.8 		"/>
		<path d="M55.8,131.1c-1.4,1.8-3.1,3.1-5.2,4.1h76.2v-4.1H55.8z"/>
	</g>
</g>
</svg>
