<?xml version="1.0" encoding="utf-8"?>
<!-- Generator: Adobe Illustrator 25.0.0, SVG Export Plug-In . SVG Version: 6.00 Build 0)  -->
<svg version="1.1" id="Capa_1" xmlns="http://www.w3.org/2000/svg" xmlns:xlink="http://www.w3.org/1999/xlink" x="0px" y="0px"
	 viewBox="0 0 962 728" style="enable-background:new 0 0 962 728;" xml:space="preserve">
<style type="text/css">
	.st0{fill:#222222;stroke:#000000;stroke-width:23;stroke-miterlimit:10;}
</style>
<path class="st0" d="M849.1,130.6l-144,189.6L564.3,130.6h-21.2l152.1,201.8L528.5,548.7h19.5l157-204.2l157.8,204.2h20.3
	L715.6,332.3l152.9-201.8L849.1,130.6L849.1,130.6z M86,350.9h349.8c1.1-28.7-1.8-56.4-8.5-83c-6.8-26.6-17.6-50.2-32.5-70.8
	c-14.9-20.6-34.2-37.2-57.8-49.6s-51.7-18.7-84.2-18.7c-23.3,0-46.1,4.9-68.3,14.6c-22.2,9.8-41.8,24-58.6,42.7
	s-30.4,41.6-40.7,68.8c-10.3,27.1-15.5,58-15.5,92.7c0,30.9,3.5,59.8,10.6,86.6s17.9,50.2,32.5,70c14.6,19.8,33.5,35.1,56.5,46
	c23,10.8,50.8,16,83.4,15.5c47.7,0,87.9-13.4,120.4-40.3c32.5-26.9,51.8-64.7,57.8-113.5h-16.3c-7.1,46.1-25.1,80.7-54.1,103.7
	c-29,23.1-65.5,34.6-109.4,34.6c-29.8,0-55-5.2-75.7-15.5c-20.6-10.3-37.4-24.4-50.4-42.3c-13-17.9-22.6-38.9-28.9-63.1
	C89.9,405.3,86.5,379.1,86,350.9L86,350.9z M419.5,334.7H86c1.6-29.3,7-55.6,16.3-78.9c9.2-23.3,21.3-43.3,36.2-59.8
	c14.9-16.5,32.3-29.2,52.1-37.8c19.8-8.7,41.1-13,63.9-13c27.1,0,51,5,71.6,15.1c20.6,10,37.8,23.7,51.7,41.1
	c13.8,17.4,24.3,37.6,31.3,60.6C416,284.9,419.5,309.2,419.5,334.7L419.5,334.7z"/>
</svg>
