<?xml version="1.0" encoding="utf-8"?>
<!-- Generator: Adobe Illustrator 25.0.0, SVG Export Plug-In . SVG Version: 6.00 Build 0)  -->
<svg version="1.1" id="Capa_1" xmlns="http://www.w3.org/2000/svg" xmlns:xlink="http://www.w3.org/1999/xlink" x="0px" y="0px"
	 viewBox="0 0 550 600" style="enable-background:new 0 0 550 600;" xml:space="preserve">
<style type="text/css">
	.st0{fill:#FFC24A;}
	.st1{fill-rule:evenodd;clip-rule:evenodd;fill:#FFA712;}
	.st2{fill:#F4BD62;}
	.st3{fill-rule:evenodd;clip-rule:evenodd;fill:#FFA50E;}
	.st4{fill:#F6820C;}
	.st5{fill:#FDE068;}
	.st6{fill:#FCCA3F;}
	.st7{fill:#EEAB37;}
</style>
<g>
	<path class="st0" d="M74.7,467l3.3-4.6l156.8-297.5l0.3-3.1L166,31.9c-5.8-10.9-22.1-8.1-24,4L74.7,467z"/>
	<g>
		<path id="a" class="st1" d="M76.7,463.5l2.5-4.9l155.1-294.4L165.4,33.9c-5.7-10.8-20.3-8-22.2,4L76.7,463.5z"/>
	</g>
	<g>
		<path id="a_1_" d="M76.7,463.5l2.5-4.9l155.1-294.4L165.4,33.9c-5.7-10.8-20.3-8-22.2,4L76.7,463.5z"/>
	</g>
	<path class="st2" d="M285.5,260l51.5-52.7L285.5,109c-4.9-9.3-18.5-9.3-23.4,0l-27.5,52.4v4.5L285.5,260L285.5,260z"/>
	<g>
		<path id="c" class="st3" d="M284.6,257.8l50-51.2l-50-95.3c-4.8-9-16.3-10-21-0.9L236,163.6l-0.8,2.7L284.6,257.8z"/>
	</g>
	<g>
		<path id="c_1_" d="M284.6,257.8l50-51.2l-50-95.3c-4.8-9-16.3-10-21-0.9L236,163.6l-0.8,2.7L284.6,257.8z"/>
	</g>
	<path class="st4" d="M74.7,467l1.5-1.5l5.5-2.2l200.6-199.9l2.5-6.9l-50-95.4L74.7,467z"/>
	<path class="st5" d="M291.9,567.8l181.6-101.3l-51.8-319.3c-1.6-10-13.9-13.9-21-6.8L74.7,467l180.5,100.8
		C266.6,574.2,280.5,574.2,291.9,567.8"/>
	<path class="st6" d="M471.9,465.7l-51.5-316.9c-1.6-9.9-11.8-14-18.9-6.9L76.7,466.4l178.5,99.8c11.3,6.3,25.1,6.3,36.4,0
		L471.9,465.7L471.9,465.7z"/>
	<path class="st7" d="M291.9,564.8c-11.4,6.4-25.3,6.4-36.7,0L76.2,465.5l-1.5,1.5l180.5,100.8c11.4,6.4,25.3,6.4,36.7,0
		l181.6-101.3l-0.4-2.7L291.9,564.8L291.9,564.8z"/>
</g>
</svg>
