<?xml version="1.0" encoding="utf-8"?>
<!-- Generator: Adobe Illustrator 25.0.0, SVG Export Plug-In . SVG Version: 6.00 Build 0)  -->
<svg version="1.1" id="Capa_1" xmlns="http://www.w3.org/2000/svg" xmlns:xlink="http://www.w3.org/1999/xlink" x="0px" y="0px"
	 viewBox="0 0 150 150" style="enable-background:new 0 0 150 150;" xml:space="preserve">
<style type="text/css">
	.st0{fill:#DE4C36;}
</style>
<path class="st0" d="M147.2,68.3L81.7,2.8C77.9-1,71.8-1,68,2.8L54.4,16.4l17.3,17.3c4-1.4,8.6-0.4,11.8,2.7
	c3.2,3.2,4.1,7.9,2.7,11.9l16.6,16.6c4-1.4,8.7-0.5,11.9,2.7c4.5,4.5,4.5,11.8,0,16.3c-4.5,4.5-11.8,4.5-16.3,0
	c-3.4-3.4-4.2-8.3-2.5-12.5L80.4,55.9l0,40.8c1.1,0.6,2.2,1.3,3,2.2c4.5,4.5,4.5,11.8,0,16.3c-4.5,4.5-11.8,4.5-16.3,0
	c-4.5-4.5-4.5-11.8,0-16.3c1.1-1.1,2.4-1.9,3.8-2.5V55.2c-1.4-0.6-2.7-1.4-3.8-2.5c-3.4-3.4-4.2-8.4-2.5-12.6l-17-17L2.8,68
	c-3.8,3.8-3.8,9.9,0,13.7l65.5,65.5c3.8,3.8,9.9,3.8,13.7,0L147.2,82C150.9,78.2,150.9,72.1,147.2,68.3"/>
</svg>
