<?xml version="1.0" encoding="utf-8"?>
<!-- Generator: Adobe Illustrator 25.0.0, SVG Export Plug-In . SVG Version: 6.00 Build 0)  -->
<svg version="1.1" id="Capa_1" xmlns="http://www.w3.org/2000/svg" xmlns:xlink="http://www.w3.org/1999/xlink" x="0px" y="0px"
	 viewBox="0 0 2500 2432" style="enable-background:new 0 0 2500 2432;" xml:space="preserve">
<style type="text/css">
	.st0{fill:#FFFFFF;}
</style>
<path class="st0" d="M1245.2,0C557.6,0,0,557.5,0,1245.2c0,550.2,356.8,1016.9,851.5,1181.5c62.2,11.5,85.1-27,85.1-59.9
	c0-29.7-1.2-127.8-1.7-231.8c-346.4,75.3-419.5-146.9-419.5-146.9c-56.6-143.9-138.3-182.2-138.3-182.2c-113-77.3,8.5-75.7,8.5-75.7
	c125,8.8,190.9,128.3,190.9,128.3c111.1,190.4,291.3,135.3,362.3,103.5c11.2-80.5,43.4-135.4,79.1-166.5
	c-276.6-31.5-567.3-138.3-567.3-615.4c0-135.9,48.6-247,128.3-334.2c-12.9-31.4-55.5-158,12.1-329.5c0,0,104.6-33.5,342.5,127.6
	c99.3-27.6,205.8-41.4,311.7-41.9c105.8,0.5,212.4,14.3,311.9,41.9c237.7-161.1,342.1-127.6,342.1-127.6
	c67.8,171.5,25.1,298.2,12.2,329.5c79.8,87.2,128.1,198.3,128.1,334.2c0,478.2-291.3,583.6-568.6,614.4
	c44.7,38.6,84.5,114.4,84.5,230.6c0,166.6-1.4,300.7-1.4,341.7c0,33.1,22.4,72,85.5,59.7c494.5-164.8,850.8-631.4,850.8-1181.4
	C2490.3,557.5,1932.8,0,1245.2,0"/>
</svg>
