<?xml version="1.0" encoding="utf-8"?>
<!-- Generator: Adobe Illustrator 25.0.0, SVG Export Plug-In . SVG Version: 6.00 Build 0)  -->
<svg version="1.1" id="Capa_1" xmlns="http://www.w3.org/2000/svg" xmlns:xlink="http://www.w3.org/1999/xlink" x="0px" y="0px"
	 viewBox="0 0 150 150" style="enable-background:new 0 0 150 150;" xml:space="preserve">
<style type="text/css">
	.st0{fill:#F0DB4F;}
	.st1{fill:#323330;}
</style>
<path class="st0" d="M15,15h120v120H15V15z"/>
<path class="st1" d="M125.1,106.4c-0.9-5.5-4.5-10.1-15-14.4c-3.7-1.7-7.8-2.9-9-5.7c-0.4-1.6-0.5-2.6-0.3-3.5
	c0.8-3.2,4.5-4.2,7.6-3.3c2,0.7,3.8,2.1,4.9,4.5c5.1-3.3,5.1-3.3,8.7-5.7c-1.3-2.1-2.1-3-2.9-3.9c-3.1-3.5-7.4-5.2-14.1-5.1
	c-1.2,0.2-2.4,0.3-3.5,0.4c-3.4,0.9-6.6,2.7-8.5,5.1c-5.7,6.4-4,17.7,2.8,22.4c6.8,5.1,16.8,6.3,18.1,11.1c1.3,5.8-4.3,7.7-9.8,7.1
	c-4-0.9-6.3-2.9-8.7-6.7c-4.5,2.6-4.5,2.6-9.1,5.2c1.1,2.4,2.2,3.5,4.1,5.6c8.7,8.8,30.4,8.4,34.4-5
	C125,114.2,126,111.1,125.1,106.4z M80.2,70.1H69c0,9.7-0.1,19.3-0.1,29.1c0,6.2,0.3,11.8-0.7,13.5c-1.6,3.4-5.9,3-7.8,2.3
	c-2-0.9-3-2.3-4.1-4.3c-0.3-0.6-0.6-1-0.6-1c-3.1,1.9-6.1,3.8-9.1,5.6c1.5,3.1,3.8,5.8,6.6,7.5c4.3,2.6,10,3.3,16,2
	c3.9-1.1,7.3-3.5,9.1-7.1c2.6-4.7,2-10.5,2-16.7C80.3,90.8,80.2,80.5,80.2,70.1L80.2,70.1z"/>
</svg>
