<?xml version="1.0" encoding="utf-8"?>
<!-- Generator: Adobe Illustrator 25.0.0, SVG Export Plug-In . SVG Version: 6.00 Build 0)  -->
<svg version="1.1" id="Capa_1" xmlns="http://www.w3.org/2000/svg" xmlns:xlink="http://www.w3.org/1999/xlink" x="0px" y="0px"
	 viewBox="0 0 24 24" style="enable-background:new 0 0 24 24;" xml:space="preserve">
<style type="text/css">
	.st0{fill:none;stroke:#000000;stroke-linecap:round;stroke-linejoin:round;}
</style>
<path class="st0" d="M2,12c0,5.5,4.5,10,10,10c5.5,0,10-4.5,10-10c0-5.5-4.5-10-10-10C6.5,2,2,6.5,2,12z"/>
<path class="st0" d="M13,2c0,0,3,4,3,10c0,6-3,10-3,10"/>
<path class="st0" d="M11,22c0,0-3-4-3-10c0-6,3-10,3-10"/>
<path class="st0" d="M2.6,15.5h18.7"/>
<path class="st0" d="M2.6,8.5h18.7"/>
</svg>
