<?xml version="1.0" encoding="utf-8"?>
<!-- Generator: Adobe Illustrator 25.0.0, SVG Export Plug-In . SVG Version: 6.00 Build 0)  -->
<svg version="1.1" id="Capa_1" xmlns="http://www.w3.org/2000/svg" xmlns:xlink="http://www.w3.org/1999/xlink" x="0px" y="0px"
	 viewBox="0 0 2490 2500" style="enable-background:new 0 0 2490 2500;" xml:space="preserve">
<style type="text/css">
	.st0{fill:#FFFFFF;}
</style>
<path class="st0" d="M2306,5H184C82.4,5,0,84.9,0,183.4v2133.3c0,98.5,82.4,178.3,184,178.3h2122c101.6,0,184-79.8,184-178.3V183.4
	C2490,84.9,2407.6,5,2306,5z M756.7,2088.8H384.1v-1121h372.6V2088.8z M570.5,814.8h-2.4c-125.1,0-205.9-86.1-205.9-193.7
	c0-110,83.3-193.7,210.8-193.7c127.4,0,205.9,83.7,208.3,193.7C781.3,728.7,700.4,814.8,570.5,814.8z M2100.3,2088.7h-372.6v-599.6
	c0-150.7-53.9-253.5-188.7-253.5c-103,0-164.3,69.3-191.2,136.3c-9.9,23.9-12.3,57.4-12.3,90.9v626H962.9c0,0,4.9-1015.8,0-1121
	h372.7v158.6c49.6-76.4,138.2-184.9,335.8-184.9c245.1,0,428.9,160.2,428.9,504.5V2088.7z"/>
</svg>
