<?xml version="1.0" encoding="utf-8"?>
<!-- Generator: Adobe Illustrator 25.0.0, SVG Export Plug-In . SVG Version: 6.00 Build 0)  -->
<svg version="1.1" id="Capa_2" xmlns="http://www.w3.org/2000/svg" xmlns:xlink="http://www.w3.org/1999/xlink" x="0px" y="0px"
	 viewBox="0 0 550 600" style="enable-background:new 0 0 550 600;" xml:space="preserve">
<style type="text/css">
	.st0{fill:#00546B;}
</style>
<path class="st0" d="M408.3,432.6c16.3-6.9,35.8-9.4,60.8-8.8c-0.7-4.7-9.7-10.3-16.2-14.4c-2.2-1.4-4.1-2.6-5.4-3.5
	c-10-7.2-20.7-14.7-31.4-21.3c-3.4-2.1-8.4-3.8-13.1-5.5c-3.1-1.1-6-2.1-8.5-3.2c-2.5-1-5.9-2-9.6-3.1c-8.8-2.6-19.1-5.7-22.4-10.3
	c-8.5-11.1-14.5-24.5-20.4-37.9c-0.6-1.4-1.2-2.8-1.8-4.1c-3.1-7.1-6.6-14.4-10.1-21.7c-3.9-8.1-7.8-16.3-11.3-24.4
	c-1.5-3.3-2.7-6.4-3.8-9.5c-1.4-3.9-2.9-7.8-5-11.8c-22.9-44.2-56.8-81.2-97.9-107.3c-13.5-8.5-28.5-16.3-45.2-21.6
	c-5.1-1.5-10.7-1.8-16.4-2c-4.8-0.2-9.7-0.4-14.4-1.4h-6.6c-3.8-1.1-7.2-4.1-10.3-6.9c-1.5-1.4-3-2.7-4.4-3.7
	c-9.7-6.6-19.4-11-31.1-15.7c-4.1-1.9-15.7-6.3-19.8-2.8c-2.5,0.6-3.8,1.6-4.4,4.1c-2.5,3.8-0.3,9.4,1.3,12.9
	c3.1,6.6,7,11.5,11.1,16.5c2.1,2.6,4.2,5.1,6.2,8c1,1.4,2,2.8,3,4.2c4.6,6.4,9.6,13.3,12.7,20c4.3,9.4,7.5,19.3,10.5,29.1
	c2.7,8.6,5.4,17.2,8.9,25.4c2.8,6.6,7.2,14.1,11.3,20.1c1.3,1.7,2.9,3.3,4.6,4.9c2.9,2.7,5.8,5.5,7,9.2c3.1,5.1-2.5,19.6-6,28.5
	c-0.8,2.1-1.5,3.8-1.9,5.1c-8.2,25.7-6.6,61.5,2.8,83.7c0.3,0.8,0.7,1.6,1,2.4c3.4,8.2,7.1,17,16.2,19.3c0.3-0.3,0.3-0.4,0.4-0.4
	c0.1-0.1,0.2,0,0.9-0.2c0.5-3.6,0.9-7.2,1.2-10.7c1.5-13.4,2.8-26,7.5-36.6c2.2-5.5,5.9-10,9.6-14.3c1.9-2.3,3.9-4.6,5.5-7
	c2,1.2,2.7,3.9,3.5,6.7c0.4,1.6,0.9,3.2,1.6,4.6c0.3,0.7,0.6,1.4,0.9,2.1c3.8,9.1,7.9,19,12.6,28c10.3,20.1,22,39.5,35.1,57.1
	c4.4,6.3,10.7,13.2,16.3,18.8c0.9,0.8,1.8,1.4,2.6,2c1.7,1.2,3.3,2.4,4.6,4.2h0.6v0.9c-6-2.2-10.5-6.9-15-11.5
	c-2.6-2.7-5.1-5.3-7.9-7.4c-14.1-10.7-31-26.7-40.8-42c-3.1-6.6-6.3-13-9.6-19.5c-1.1-2.2-2.2-4.3-3.3-6.5c0,0,0-0.3,0-0.6
	c-1.2,1.6-1.4,3.2-1.6,5.1c-0.1,1.1-0.3,2.3-0.6,3.7c-1.2,4.5-1.7,9.1-2.3,13.6c-1.4,11.3-2.7,21.6-12.8,25.6
	c-16,6.6-27.9-10.7-32.9-18.5c-16-26-20.4-69.9-9.1-105.4c0.9-2.7,1.5-5.6,2.1-8.6c1.1-5.5,2.3-10.9,5.1-15
	c-0.6-3.8-2.8-5.7-4.9-7.6c-1.1-0.9-2.1-1.9-2.9-3c-4.4-6-8.2-12.9-11.6-19.4c-5-9.8-8.9-21-12.7-31.9c-1.2-3.4-2.4-6.8-3.6-10.1
	c-1.1-2.8-1.8-5.5-2.5-8.2c-0.7-2.9-1.4-5.7-2.6-8.4c-3-6.4-7.9-12.8-12.4-18.8c-1.2-1.6-2.4-3.2-3.6-4.7c-1.2-1.8-2.8-3.8-4.6-6.1
	c-8.8-11.1-22.1-27.8-15.1-44.8c13.2-32.3,59.3-7.8,77.2,3.4c1.8,1.1,3.7,2.8,5.6,4.5c2.8,2.5,5.8,5.1,8.8,6.4
	c3.9,0.2,7.8,0.4,11.8,0.6c3.9,0.2,7.8,0.5,11.8,0.6c1.3,0.3,2.6,0.6,3.8,0.9c13.3,3.1,25.7,6,36.3,12
	c53.9,31.7,89.1,64,121.4,117.3c4.4,7.2,7.4,14.7,10.4,22.4c1.7,4.4,3.5,8.9,5.6,13.3c7.8,18.2,16.6,37.3,25.7,54.6
	c1.1,2.3,2.2,4.6,3.3,7c2.7,6.1,5.5,12.2,9.6,17.1c1.5,2.1,4.7,3.2,7.9,4.3c1.6,0.5,3.1,1.1,4.4,1.7c4.1,2.1,8.5,4,12.9,5.9
	c6.9,3,13.8,6,19.7,9.8c18.2,11.3,35.8,24.8,51.7,38.6c3.2,2.9,5.9,6.4,8.6,10c2.3,3,4.5,6,7.1,8.5v2.8c-5,1.6-10,3.1-15.1,4.4
	c-5.5,1.4-10.6,2-15.7,2.5c-5.2,0.6-10.3,1.1-15.6,2.5c-0.7,0.2-1.4,0.4-2.1,0.6c-6.2,1.8-13.4,3.9-19.6,4.4
	c0.3,0.3,0.6,0.6,0.6,0.6c3,8.6,15.9,16,26.4,22.1c3.7,2.1,7.1,4.1,9.7,5.8c12.2,8.8,23.5,19.4,32.6,31.7c1.6,1.6,3.1,3,4.7,4.5
	c1.6,1.5,3.1,3,4.7,4.6c1.1,1.5,1.8,3.3,2.4,5c0.7,1.8,1.4,3.6,2.6,5.1v0.9c-2.7-1-4.6-2.9-6.5-4.9c-1.1-1.2-2.2-2.3-3.5-3.3
	c-3-2-5.9-4.2-8.9-6.4c-3.9-2.9-7.9-5.8-11.8-8.4c-6.1-3.8-12.6-6.9-19.2-9.9c-6.4-2.9-12.7-5.9-18.7-9.6
	c-6.9-4.4-13.5-9.4-20.1-14.4c-6-4.4-12.5-12.9-16.3-19.1c-0.9-1.5-1.5-3.1-2.1-4.6c-0.8-2-1.5-4-2.9-5.4c0.5-4.5,4.8-5.6,8.9-6.7
	C405.8,433.4,407.2,433,408.3,432.6z"/>
<path class="st0" d="M124.9,140.5c4.1-1,8.2-1.7,13.9-1.7c1.1,1.1,2.4,2,3.8,2.9c2.1,1.4,4.2,2.8,5.4,4.9c0.8,1.1,1.2,2.1,1.7,3.2
	c0.6,1.3,1.2,2.6,2.4,4c0,8.2-2.4,13.6-7.1,17c0,0-0.3,0.3-0.7,0.7c-1.4-2.7-2.6-5.4-3.9-8.1c-1.3-2.7-2.6-5.4-3.9-8.2
	c-1.3-1.9-2.9-3.6-4.4-5.3c-2.4-2.7-4.8-5.4-6.5-8.7h-0.7V140.5z"/>
</svg>
