<?xml version="1.0" encoding="utf-8"?>
<!-- Generator: Adobe Illustrator 25.0.0, SVG Export Plug-In . SVG Version: 6.00 Build 0)  -->
<svg version="1.1" id="Capa_1" xmlns="http://www.w3.org/2000/svg" xmlns:xlink="http://www.w3.org/1999/xlink" x="0px" y="0px"
	 viewBox="0 0 150 150" style="enable-background:new 0 0 150 150;" xml:space="preserve">
<path d="M136.9,71.4c1.4,3.2,2.3,6.6,2.7,10c0.4,3.5,0.2,7-0.6,10.4c-0.7,3.4-2,6.7-3.7,9.7c-1.1,2-2.5,3.9-4.1,5.6
	c-1.5,1.7-3.3,3.3-5.1,4.7c-1.9,1.4-3.9,2.5-6,3.5c-2.1,0.9-4.3,1.6-6.6,2.1c-1.1,3.3-2.7,6.4-4.7,9.3c-2,2.8-4.5,5.3-7.3,7.3
	c-2.8,2.1-5.9,3.6-9.3,4.7c-3.3,1.1-6.8,1.6-10.3,1.6c-2.3,0-4.6-0.2-6.9-0.7c-2.3-0.5-4.5-1.2-6.6-2.1s-4.1-2.1-6-3.5
	c-1.9-1.4-3.6-2.9-5.1-4.7c-3.4,0.7-6.9,0.9-10.4,0.6c-3.5-0.4-6.9-1.3-10-2.7c-3.2-1.4-6.1-3.3-8.7-5.7c-2.6-2.3-4.8-5.1-6.5-8.1
	c-1.2-2-2.1-4.1-2.8-6.3c-0.7-2.2-1.2-4.5-1.5-6.8c-0.2-2.3-0.2-4.6,0-6.9c0.2-2.3,0.8-4.6,1.5-6.8c-2.3-2.6-4.2-5.5-5.7-8.7
	c-1.4-3.2-2.3-6.6-2.7-10c-0.4-3.5-0.2-7,0.5-10.4c0.7-3.4,2-6.7,3.7-9.7c1.1-2,2.5-3.9,4.1-5.6c1.5-1.7,3.3-3.3,5.2-4.7
	c1.9-1.4,3.9-2.5,6-3.5c2.1-0.9,4.4-1.6,6.6-2.1c1.1-3.3,2.7-6.4,4.7-9.3c2.1-2.8,4.5-5.3,7.4-7.4c2.8-2,5.9-3.6,9.3-4.7
	c3.3-1.1,6.8-1.6,10.3-1.6c2.3,0,4.6,0.2,6.9,0.7c2.3,0.5,4.5,1.2,6.6,2.1c2.1,1,4.1,2.1,6,3.5c1.9,1.4,3.6,2.9,5.1,4.7
	c3.4-0.7,6.9-0.9,10.4-0.5c3.5,0.4,6.8,1.3,10,2.7c3.2,1.4,6.1,3.3,8.7,5.7c2.6,2.3,4.8,5.1,6.5,8.1c1.2,2,2.1,4.1,2.8,6.3
	c0.7,2.2,1.2,4.5,1.5,6.8c0.2,2.3,0.2,4.6,0,7c-0.2,2.3-0.8,4.6-1.5,6.8C133.6,65.3,135.5,68.2,136.9,71.4L136.9,71.4z M91.3,129.8
	c3-1.2,5.7-3.1,8-5.3c2.3-2.3,4.1-5,5.3-8c1.2-3,1.9-6.2,1.9-9.4V76.6c0,0,0-0.1,0-0.1c0,0,0-0.1,0-0.1c0,0,0-0.1-0.1-0.1
	c0,0-0.1,0-0.1-0.1l-11-6.4v36.9c0,0.4-0.1,0.8-0.2,1.1c-0.1,0.4-0.2,0.7-0.4,1s-0.4,0.6-0.7,0.9c-0.3,0.3-0.6,0.5-0.9,0.7
	l-26.2,15.1c-0.2,0.1-0.6,0.3-0.8,0.4c1.1,0.9,2.3,1.7,3.5,2.4c1.2,0.7,2.5,1.3,3.9,1.8c1.3,0.5,2.7,0.8,4.1,1.1
	c1.4,0.2,2.8,0.4,4.3,0.4C85.1,131.7,88.3,131.1,91.3,129.8L91.3,129.8z M29,109.1c1.6,2.8,3.8,5.2,6.3,7.2c2.6,2,5.5,3.4,8.6,4.2
	s6.4,1.1,9.6,0.6c3.2-0.4,6.3-1.5,9.1-3.1l26.4-15.3l0.1-0.1c0,0,0,0,0-0.1c0,0,0-0.1,0-0.1V89.8l-31.9,18.5c-0.3,0.2-0.7,0.3-1,0.4
	c-0.4,0.1-0.7,0.1-1.1,0.1c-0.4,0-0.7,0-1.1-0.1c-0.4-0.1-0.7-0.2-1-0.4L26.8,93.1c-0.2-0.1-0.6-0.3-0.8-0.5
	c-0.2,1.4-0.4,2.8-0.4,4.3s0.1,2.8,0.4,4.3c0.2,1.4,0.6,2.8,1.1,4.1C27.7,106.6,28.3,107.9,29,109.1L29,109.1z M22.1,52
	c-1.6,2.8-2.7,5.9-3.1,9.1c-0.4,3.2-0.2,6.4,0.6,9.6c0.8,3.1,2.3,6,4.2,8.6c2,2.6,4.4,4.7,7.2,6.3l26.4,15.3c0,0,0.1,0,0.1,0h0.1
	c0,0,0.1,0,0.1,0c0,0,0.1,0,0.1,0L69,94.5L37.1,76.1c-0.3-0.2-0.6-0.4-0.9-0.7c-0.3-0.3-0.5-0.6-0.7-0.9c-0.2-0.3-0.3-0.7-0.4-1
	C35,73.1,35,72.7,35,72.3V41.3c-1.3,0.5-2.6,1.1-3.9,1.8c-1.2,0.7-2.4,1.5-3.5,2.5c-1.1,0.9-2.1,1.9-3,3
	C23.7,49.6,22.9,50.8,22.1,52L22.1,52z M112.9,73.2c0.3,0.2,0.6,0.4,0.9,0.7c0.3,0.3,0.5,0.6,0.7,0.9c0.2,0.3,0.3,0.7,0.4,1
	c0.1,0.4,0.1,0.7,0.1,1.1V108c4.4-1.6,8.2-4.4,11.1-8.2c2.8-3.7,4.6-8.2,5-12.8c0.4-4.7-0.5-9.3-2.7-13.5c-2.2-4.1-5.5-7.6-9.5-9.9
	L92.4,48.3c0,0-0.1,0-0.1,0h-0.1c0,0-0.1,0-0.1,0c0,0-0.1,0-0.1,0l-11,6.4L112.9,73.2L112.9,73.2z M123.9,56.6L123.9,56.6
	L123.9,56.6L123.9,56.6z M123.9,56.6c0.8-4.6,0.3-9.3-1.5-13.6c-1.8-4.3-4.8-8-8.6-10.7c-3.8-2.7-8.3-4.2-13-4.4
	c-4.7-0.2-9.3,0.9-13.4,3.3L60.9,46.4c0,0-0.1,0-0.1,0.1l-0.1,0.1c0,0,0,0.1,0,0.1c0,0,0,0.1,0,0.1v12.8L92.7,41
	c0.3-0.2,0.7-0.3,1-0.4c0.4-0.1,0.7-0.1,1.1-0.1c0.4,0,0.8,0,1.1,0.1c0.4,0.1,0.7,0.2,1,0.4l26.2,15.1
	C123.4,56.3,123.7,56.5,123.9,56.6z M54.8,42.5c0-0.4,0.1-0.7,0.2-1.1c0.1-0.4,0.2-0.7,0.4-1c0.2-0.3,0.4-0.6,0.7-0.9
	c0.3-0.3,0.6-0.5,0.9-0.7l26.2-15.1c0.2-0.2,0.6-0.3,0.8-0.4c-3.6-3-8-4.9-12.6-5.5c-4.6-0.6-9.3,0.1-13.6,2.1
	c-4.2,2-7.8,5.1-10.3,9.1c-2.5,4-3.8,8.5-3.8,13.2v30.5c0,0,0,0.1,0,0.1s0,0.1,0,0.1c0,0,0,0.1,0.1,0.1c0,0,0,0,0.1,0.1l11,6.4V42.5
	z M60.8,82.8L75,91l14.2-8.2V66.4L75,58.2l-14.2,8.2L60.8,82.8z"/>
</svg>
