<?xml version="1.0" encoding="utf-8"?>
<!-- Generator: Adobe Illustrator 25.0.0, SVG Export Plug-In . SVG Version: 6.00 Build 0)  -->
<svg version="1.1" id="Capa_1" xmlns="http://www.w3.org/2000/svg" xmlns:xlink="http://www.w3.org/1999/xlink" x="0px" y="0px"
	 viewBox="0 0 20 20" style="enable-background:new 0 0 20 20;" xml:space="preserve">
<style type="text/css">
	.st0{fill:#A7D129;}
</style>
<path class="st0" d="M0.2,10C3,4.6,9.6,2.4,15,5.2c2.1,1.1,3.7,2.7,4.8,4.8C17,15.4,10.4,17.6,5,14.8C2.9,13.7,1.3,12.1,0.2,10z
	 M10,14c2.2,0,4-1.8,4-4s-1.8-4-4-4s-4,1.8-4,4S7.8,14,10,14z M10,12c-1.1,0-2-0.9-2-2s0.9-2,2-2s2,0.9,2,2S11.1,12,10,12z"/>
</svg>
