<?xml version="1.0" encoding="utf-8"?>
<!-- Generator: Adobe Illustrator 25.0.0, SVG Export Plug-In . SVG Version: 6.00 Build 0)  -->
<svg version="1.1" id="Layer_1" xmlns="http://www.w3.org/2000/svg" xmlns:xlink="http://www.w3.org/1999/xlink" x="0px" y="0px"
	 viewBox="0 0 150 150" style="enable-background:new 0 0 150 150;" xml:space="preserve">
<style type="text/css">
	.st0{fill:#EFCCA3;}
	.st1{fill:#CCAC8D;}
	.st2{fill:#FFFFFF;}
	.st3{fill:#56332B;}
	.st4{fill:#442823;}
	.st5{fill:#7F4A41;}
	.st6{fill:#331712;}
</style>
<g>
	<path class="st0" d="M125.5,57.7c-0.2-5.2,0.5-9.7-1.9-13.6C118,34.5,104,28.9,75.9,28.9v0.8h-0.6h0.6v-0.8
		c-28.1,0-42.8,5.6-48.5,15.3c-2.2,4-2,8.4-2.3,13.6c-0.2,4.1-2.1,8.4-1.3,13.1c0.9,6.1,1.3,12.2,2.2,17.8c0.7,4.6,7,8.4,7.6,12.8
		c1.6,11.9,14,17.4,42.1,17.4v0.9h-0.7h0.8v-0.9c28.1,0,40-5.5,41.6-17.4c0.6-4.4,6.4-8.2,7.1-12.8c0.9-5.6,1.3-11.7,2.2-17.8
		C127.6,66.2,125.8,61.8,125.5,57.7L125.5,57.7z"/>
	<path class="st1" d="M75.4,61.9c5,0.1,8.5,3.3,11.8,6.2c3.9,3.4,10.4,5.7,13.1,8.7c2.7,2.9,6.2,5.9,7.5,10.4
		c1.3,4.6,1.6,10.4,1.6,11.9c0,1.5,0.8,1.2,3.2,0c5.5-2.7,11.6-10,11.6-10c-0.7,4.6-6.7,8.7-7.3,13c-1.4,11.9-13,17.7-41.7,17.7
		h-0.1h0.7"/>
	<path class="st1" d="M93.9,52.7c1.1,3.6,4.8,15.9-2.5,11.8c0,0,3,1.8,4.9,8.4c2,6.7,6.8,7.5,6.8,7.5S111,82,116.9,77
		c4.9-4.2,5.7-11.7,3.6-17.4c-2.1-5.6-5.9-7.4-11.4-8.5C103.6,49.7,92.6,48.6,93.9,52.7z"/>
	<circle cx="107.8" cy="66.1" r="10.3"/>
	<circle class="st2" cx="105.1" cy="61.5" r="2.7"/>
	<path class="st0" d="M92.2,65.6c0,0,9.2,6.3,14.3,12.5c5,6.2,4.9,7.4,4.9,7.4l-3.6,1.6c0,0-5.2-9.7-11.5-13.3
		c-6.4-3.6-7.1-6.7-7.1-6.7L92.2,65.6L92.2,65.6z"/>
	<path class="st1" d="M75.8,61.9c-5,0.1-8.8,3.3-12.2,6.2c-3.9,3.4-10.7,5.7-13.3,8.7c-2.7,2.9-6.3,5.9-7.6,10.4
		c-1.3,4.6-1.8,10.4-1.8,11.9c0,1.5,0.2,1.6-3.2,0c-5.5-2.6-11.6-10-11.6-10c0.7,4.6,6.7,8.7,7.3,13c1.6,11.9,13.2,17.7,41.9,17.7
		h0.6"/>
	<path class="st3" d="M102.9,81.7c-5.6-6.9-14.6-13.3-27.2-13.3h-0.1c-12.5,0-21.5,6.4-27.2,13.3c-5.9,7.1-5.4,10-5.4,16.7
		c0,24.6,8.7,17.6,14.4,20.6c5.9,2.9,11.9,2,18.1,2h0.1c6.3,0,12.3,0.8,18.1-2.1c5.7-2.9,14.4,4.3,14.4-20.3
		C108.4,91.8,108.8,88.8,102.9,81.7L102.9,81.7z"/>
	<path class="st4" d="M75.2,74.4c0,0-0.8,11.4-2.5,13.6l3-0.7L75.2,74.4z"/>
	<path class="st4" d="M76,74.4c0,0,0.8,11.4,2.5,13.6l-3-0.7L76,74.4z"/>
	<path class="st3" d="M66.2,71.7c-1.2-2.7,3-7,9.7-7.1c6.7,0,10.9,4.3,9.7,7.1c-1.2,2.8-5.4,3.6-9.7,3.7
		C71.7,75.3,67.3,74.5,66.2,71.7L66.2,71.7z"/>
	<path d="M75.9,74.4c0-0.5,4-0.6,6.1-2c0,0-4.3,1.4-5.3,0.8c-0.9-0.5-1.2-1.9-1.2-1.9s-0.4,1.4-1.1,1.9c-0.8,0.5-5.7-0.8-5.7-0.8
		s6.6,1.6,6.6,2c0,0.4-0.1,1.5-0.1,2.3c0,2.9,0,10.2,0.5,10.8c0.7,1.1,0.5-7.8,0.5-10.8C76,75.8,76,74.9,75.9,74.4z"/>
	<path class="st5" d="M76.1,90.1c2,0,5.5,1.4,8.7,3.6c-3-3.4-6.7-5.7-8.7-5.7c-2.1,0-6.6,2.6-9.7,6.3C69.7,91.7,73.9,90.1,76.1,90.1
		z"/>
	<path class="st4" d="M75.3,110.8c-4.4,0-8.8-1.4-12.8-2.5c-0.8-0.2-1.6,0.4-2.5,0.1c-7.4-2.3-13.3-6.3-17-11.4v1.2
		c0,24.6,8.7,17.7,14.4,20.6c5.9,2.9,11.9,2,18.1,2h0.1c6.3,0,12.3,0.8,18.1-2.1c5.7-2.9,14.4,4.2,14.4-20.4c0-0.9,0-1.9,0.1-2.7
		c-3.4,5.5-9.6,9.8-17.3,12.4c-0.7,0.2-2.3-0.4-3-0.2C83.8,109.3,80.1,110.8,75.3,110.8L75.3,110.8z"/>
	<path class="st4" d="M64.2,97.6c0,0-2.9,8.8-0.9,12.6l-2.7-1.2C60.5,109.1,62.5,100.2,64.2,97.6z M87.4,97.6c0,0,2.9,8.8,0.9,12.6
		l2.7-1.2C91,109.1,88.9,100.2,87.4,97.6L87.4,97.6z"/>
	<path class="st1" d="M56.7,52.7c-1.1,3.6-4.8,15.9,2.5,11.8c0,0-3,1.8-4.9,8.4c-1.9,6.7-6.8,7.5-6.8,7.5S39.6,82,33.7,77
		c-4.9-4.2-5.7-11.7-3.6-17.4S36,52.2,41.5,51C47,49.7,57.8,48.6,56.7,52.7L56.7,52.7z"/>
	<path d="M75.8,88c3.2,0,13,6.8,13.1,15.1v-0.5c0-8.7-8-15.6-13.1-15.6s-13.1,7-13.1,15.6v0.5C62.8,94.8,72.6,88,75.8,88z"/>
	<ellipse transform="matrix(0.9683 -0.2498 0.2498 0.9683 -15.0346 21.6743)" class="st6" cx="77.9" cy="70.1" rx="0.9" ry="1.8"/>
	<ellipse transform="matrix(0.2963 -0.9551 0.9551 0.2963 -15.6878 118.8643)" class="st6" cx="72.8" cy="70.1" rx="1.8" ry="0.9"/>
	<circle cx="43.3" cy="66.1" r="10.3"/>
	<circle class="st2" cx="46" cy="61.5" r="2.7"/>
	<path class="st5" d="M78.8,66.2c0-0.1-2.7,1.2-3.4,1.3c-0.7-0.1-3.4-1.4-3.4-1.3H78.8z"/>
	<path class="st0" d="M58.3,65.6c0,0-9.2,6.3-14.3,12.5s-4.9,7.4-4.9,7.4l3.6,1.6c0,0,5.2-9.7,11.5-13.3s7.1-6.7,7.1-6.7L58.3,65.6z
		"/>
	<path class="st1" d="M38.1,46.9c0,0-3.2,8.7-10.2,12.3C27.9,59.2,38.9,57.9,38.1,46.9z M111.9,46.9c0,0,3.2,8.7,10.2,12.3
		C122.1,59.2,111.1,57.9,111.9,46.9z M91.9,63c0,0-6.9-7.3-16.2-7.5h0.1H76C66.6,55.8,59.8,63,59.8,63c8.1-5.6,15-5.5,16.2-5.5
		C75.9,57.5,83.8,57.4,91.9,63L91.9,63z M83.8,47.8c0,0-3.5-4.9-8.2-5h0.2c-3.5,0.1-8.1,5-8.1,5c4-3.9,8.1-3.7,8.1-3.7
		S79.7,44,83.8,47.8z M43.3,83.8c0,0-5.5,2.7-9.5,1.1h-0.1c-3.5-2-5.3-8-5.3-8S32,87.4,43.3,83.8z M107.5,83.8c0,0,5.5,2.7,9.5,1.1
		c4.7-2,5.4-8,5.4-8S118.8,87.4,107.5,83.8z"/>
	<path class="st1" d="M49.7,46.3c3-0.6,8.1-0.7,12.1,0.6c5,1.8,0.9,8.2,2,8.5c1.1,0.4,2.5-4.4,11.8-4c9.5,0.5,10.5,4.7,11.8,4
		c1.3-0.7-1.3-11.7,12.9-9.1c0,0-14.9-4-14.2,6.8c0,0-8.5-6.6-20.5-0.7C65.7,52.4,68.7,42.3,49.7,46.3z M101.5,46.3
		c0.2,0,0.4,0.1,0.5,0.1C102.1,46.4,101.9,46.3,101.5,46.3z M45.6,31.9c0,0-12.6,15.9-14.5,22c-1.9,6.2-3.3,31.6-4.9,35.2l-5.9-25.1
		L31,38L45.6,31.9L45.6,31.9z M105,31.9c0,0,12.6,15.9,14.5,22c1.9,6.2,3.3,31.6,4.9,35.2l5.9-25.1L119.5,38L105,31.9L105,31.9z"/>
	<path class="st3" d="M104.4,31.9c0,0,13.6,11.4,17.6,24.5s2.3,29,5.4,31c4.3,2.8,9.2-13.9,10.9-15.7c2.6-2.8,11.1-10,11.7-11.2
		c0.6-1.3-17.3-20.8-25.2-24.7C115.3,31.3,103.6,31,104.4,31.9L104.4,31.9z"/>
	<path class="st4" d="M116,38.9c0,0,16,20.5,15.8,46l6.4-13.1C138.2,71.8,132.5,55.1,116,38.9L116,38.9z"/>
	<path class="st3" d="M45.6,31.9c0,0-13.6,11.4-17.6,24.5s-2.3,29-5.4,31c-4.3,2.8-9.2-13.9-10.9-15.7C9.1,68.9,0.6,61.8,0,60.5
		s17.3-20.8,25.2-24.7C34.7,31.3,46.4,31,45.6,31.9L45.6,31.9z"/>
	<path class="st4" d="M34,38.9c0,0-16,20.5-15.8,46l-6.3-13.1C11.8,71.8,17.5,55.1,34,38.9z"/>
	<path class="st1" d="M25.3,85.4c0,0,1.2,6.3,3,8.3s0.6-1.5,0.6-1.5s-2-1.1-1.6-9.1C27.6,75,25.3,85.4,25.3,85.4L25.3,85.4z
		 M125.2,85.4c0,0-1.2,6.3-3,8.3c-1.9,2-0.6-1.5-0.6-1.5s2-1.1,1.6-9.1S125.2,85.4,125.2,85.4L125.2,85.4z"/>
	<g>
		<circle class="st4" cx="63.6" cy="80.6" r="0.9"/>
		<circle class="st4" cx="58.2" cy="86.2" r="0.9"/>
		<circle class="st4" cx="56.4" cy="80.6" r="0.9"/>
	</g>
	<g>
		<circle class="st4" cx="86.4" cy="80.6" r="0.9"/>
		<circle class="st4" cx="91.8" cy="86.2" r="0.9"/>
		<circle class="st4" cx="93.6" cy="80.6" r="0.9"/>
	</g>
</g>
</svg>
