<?xml version="1.0" encoding="utf-8"?>
<!-- Generator: Adobe Illustrator 25.0.0, SVG Export Plug-In . SVG Version: 6.00 Build 0)  -->
<svg version="1.1" id="Capa_1" xmlns="http://www.w3.org/2000/svg" xmlns:xlink="http://www.w3.org/1999/xlink" x="0px" y="0px"
	 viewBox="0 0 150 150" style="enable-background:new 0 0 150 150;" xml:space="preserve">
<style type="text/css">
	.st0{fill:#CF649A;}
</style>
<path class="st0" d="M129.4,83.4c-5.3,0-9.8,1.3-13.7,3.2c-1.4-2.8-2.8-5.3-3-7.1c-0.2-2.2-0.5-3.4-0.2-5.9c0.3-2.6,1.8-6.1,1.8-6.5
	c0-0.2-0.3-1.5-3.3-1.6s-5.7,0.5-5.9,1.4c-0.3,0.8-0.9,2.6-1.3,4.5c-0.5,2.8-6,12.6-9.2,17.7c-1.1-2-1.9-3.8-2-5.2
	c-0.2-2.2-0.5-3.4-0.2-5.9c0.3-2.6,1.8-6.1,1.8-6.5c0-0.2-0.3-1.5-3.3-1.6c-3,0-5.7,0.5-5.9,1.4c-0.3,0.8-0.6,2.7-1.3,4.5
	c-0.6,1.8-8,18.2-9.9,22.5c-1,2.2-1.8,3.9-2.5,5.1c-0.6,1.2,0,0.1-0.1,0.2c-0.5,1-0.9,1.5-0.9,1.5l0,0c-0.4,0.8-0.9,1.4-1.1,1.4
	c-0.1,0-0.4-1.9,0.1-4.6c1.1-5.7,3.8-14.5,3.7-14.8c0-0.1,0.5-1.7-1.7-2.5s-2.9,0.5-3.1,0.5s-0.3,0.4-0.3,0.4s2.4-10-4.5-10
	c-4.3,0-10.3,4.7-13.3,9c-1.9,1.1-5.9,3.2-10.1,5.5c-1.6,0.9-3.3,1.8-4.8,2.7l-0.3-0.3c-8.4-8.9-24-15.3-23.3-27.4
	c0-4.3,1.5-15.8,29.6-29.8c23-11.5,41.5-8.3,44.6-1.3c4.5,10-9.9,28.6-33.8,31.3c-9.1,1.1-13.9-2.5-15.2-3.9s-1.4-1.4-1.9-1.2
	c-0.8,0.4-0.3,1.6,0,2.4c0.8,1.8,3.7,5.2,8.6,6.8c4.4,1.4,15.1,2.3,28.1-2.8c14.5-5.6,25.8-21.2,22.5-34.2
	C90.8,19.1,68.8,14.8,48,22.2c-12.3,4.4-25.8,11.3-35.5,20.3C1.1,53.2-0.7,62.5,0.1,66.4C2.7,80.3,21.8,89.3,29.4,96
	c-0.4,0.2-0.8,0.4-1.1,0.5c-3.9,1.8-18.4,9.5-22,17.5c-4.1,9.1,0.6,15.7,3.9,16.6c9.8,2.7,19.9-2.2,25.3-10.2s4.7-18.6,2.3-23.3
	l-0.1-0.2l3-1.7c1.9-1.2,3.9-2.3,5.5-3.1c-1,2.6-1.6,5.6-1.9,10c-0.4,5.2,1.7,11.8,4.5,14.5c1.2,1.2,2.7,1.2,3.7,1.2
	c3.2,0,4.7-2.7,6.3-5.9c2-3.9,3.8-8.4,3.8-8.4s-2.3,12.3,3.9,12.3c2.3,0,4.4-2.9,5.4-4.3l0,0c0,0,0.1-0.1,0.2-0.3
	c0.1-0.2,0.2-0.3,0.3-0.5v-0.1c0.9-1.5,2.9-5.1,5.8-10.9c3.8-7.4,7.4-16.8,7.4-16.8s0.3,2.3,1.4,6c0.6,2.3,2,4.6,3.1,7.1
	c-0.9,1.2-1.4,1.9-1.4,1.9l0,0c-0.8,1-1.5,1.9-2.4,2.9c-3,3.5-6.6,7.6-7.1,8.8c-0.5,1.4-0.4,2.4,0.6,3.2c0.8,0.5,2.3,0.8,3.7,0.5
	c2.7-0.2,4.6-0.9,5.5-1.3c1.5-0.5,3.1-1.3,4.7-2.5c2.9-2.2,4.7-5.3,4.5-9.4c-0.1-2.3-0.9-4.5-1.7-6.7c0.2-0.4,0.5-0.8,0.8-1.2
	c4.6-6.8,8.3-14.3,8.3-14.3s0.3,2.3,1.4,6c0.5,1.9,1.7,4,2.7,6c-4.3,3.5-7.1,7.6-8.1,10.4c-1.7,4.9-0.4,7.3,2.2,7.7
	c1.2,0.2,2.8-0.3,4-0.9c1.5-0.5,3.3-1.4,5.1-2.6c2.9-2.2,5.8-5.2,5.6-9.2c-0.1-1.9-0.5-3.8-1.3-5.5c3.7-1.5,8.5-2.4,14.6-1.7
	c13.1,1.5,15.7,9.7,15.2,13.1s-3.2,5.3-4.2,5.9c-0.9,0.5-1.2,0.8-1.1,1.2c0.1,0.6,0.5,0.5,1.3,0.4c1.1-0.2,6.9-2.8,7.1-9
	C150.7,92.1,143.1,83.3,129.4,83.4L129.4,83.4z M28.6,117.4c-4.3,4.7-10.4,6.6-13,4.9c-2.8-1.6-1.7-8.6,3.7-13.7
	c3.2-3,7.4-5.9,10.2-7.6c0.6-0.4,1.5-1,2.7-1.6c0.2-0.1,0.3-0.2,0.3-0.2c0.2-0.1,0.4-0.2,0.6-0.4C35,106.2,33.1,112.4,28.6,117.4
	L28.6,117.4z M60.2,96c-1.5,3.7-4.7,13-6.6,12.6c-1.6-0.4-2.7-7.6-0.3-14.6c1.2-3.5,3.7-7.7,5.2-9.5c2.4-2.7,4.9-3.5,5.6-2.5
	C64.8,83.4,61.1,93.6,60.2,96z M86.2,108.3c-0.6,0.3-1.2,0.5-1.5,0.4c-0.2-0.1,0.2-0.5,0.2-0.5s3.2-3.5,4.5-5.2c0.8-1,1.6-2,2.6-3.2
	v0.4C92.1,104.5,88,107.3,86.2,108.3L86.2,108.3z M106.4,103.8c-0.4-0.3-0.4-1.4,1.2-4.8c0.6-1.4,2-3.7,4.5-5.8
	c0.3,0.9,0.4,1.7,0.4,2.6C112.4,101,108.7,103,106.4,103.8z"/>
</svg>
