<?xml version="1.0" encoding="utf-8"?>
<!-- Generator: Adobe Illustrator 25.0.0, SVG Export Plug-In . SVG Version: 6.00 Build 0)  -->
<svg version="1.1" id="Capa_1" xmlns="http://www.w3.org/2000/svg" xmlns:xlink="http://www.w3.org/1999/xlink" x="0px" y="0px"
	 viewBox="0 0 150 150" style="enable-background:new 0 0 150 150;" xml:space="preserve">
<style type="text/css">
	.st0{fill-rule:evenodd;clip-rule:evenodd;fill:#00A0B0;}
</style>
<path class="st0" d="M20.5,64.8v4c-1.9-0.7-4-1.1-5.7-1.1c-2.1,0-3.2,0.6-3.2,1.8c0,0.7,0.5,1.2,2,1.9l3.9,1.7
	c3.1,1.4,4.7,3.4,4.7,6.1c0,4.1-3.5,6.7-9.2,6.7c-2.1,0-4.4-0.3-6.9-0.9v-4.2c2.5,0.7,4.8,1,6.5,1c2.3,0,3.6-0.6,3.6-1.9
	c0-0.7-0.5-1.3-1.6-1.8l-4.3-1.9c-3.2-1.4-4.6-3.3-4.6-6c0-3.9,3.4-6.4,8.8-6.4C16.3,64.1,18.6,64.3,20.5,64.8L20.5,64.8z
	 M25.2,64.5h6.3v21h-6.3V64.5z M52,64.5v3.9h-9.5v4.7h8.3v3.5h-8.3v4.9h9.6v4H36.3v-21H52z M81.7,64.5v21h-6.1V71.7l-6,14h-3.9
	l-5.9-14v13.8h-4.2v-21h7.7l5.4,12.8l5.4-12.8H81.7L81.7,64.5z M102.2,64.5v3.9h-9.5v4.7h8.3v3.5h-8.3v4.9h9.6v4H86.6v-21H102.2z
	 M124.4,64.5v21h-6.7L110.1,72v13.5h-4.2v-21h6.9l7.4,13.3V64.5H124.4z M142.7,64.8v4c-1.9-0.7-4-1.1-5.7-1.1
	c-2.1,0-3.3,0.6-3.3,1.8c0,0.7,0.5,1.2,2,1.9l3.9,1.7c3.1,1.4,4.7,3.4,4.7,6.1c0,4.1-3.6,6.7-9.2,6.7c-2.1,0-4.4-0.3-6.9-0.9v-4.2
	c2.5,0.7,4.8,1,6.5,1c2.3,0,3.6-0.6,3.6-1.8c0-0.8-0.4-1.3-1.6-1.8l-4.2-1.9c-3.2-1.4-4.6-3.3-4.6-6c0-3.9,3.4-6.4,8.8-6.4
	C138.5,64.1,140.8,64.3,142.7,64.8L142.7,64.8z"/>
</svg>
