<?xml version="1.0" encoding="utf-8"?>
<!-- Generator: Adobe Illustrator 25.0.0, SVG Export Plug-In . SVG Version: 6.00 Build 0)  -->
<svg version="1.1" id="Capa_1" xmlns="http://www.w3.org/2000/svg" xmlns:xlink="http://www.w3.org/1999/xlink" x="0px" y="0px"
	 viewBox="0 0 150 150" style="enable-background:new 0 0 150 150;" xml:space="preserve">
<style type="text/css">
	.st0{fill:#222E59;}
	.st1{fill:#FFFFFF;}
</style>
<ellipse class="st0" cx="75" cy="19.7" rx="62.6" ry="14.7"/>
<path class="st0" d="M12.4,67v26.5c0,5,22.1,14.7,62.7,14.7s62.6-9.7,62.6-14.7V67c-12.1,7.7-37.4,11.7-62.7,11.7S24.5,74.7,12.4,67
	z M78.7,100.8h-7.4v-7.4h7.4V100.8z"/>
<path class="st0" d="M12.4,103.8v26.4c0,5,22.1,14.7,62.7,14.7s62.7-9.7,62.7-14.7v-26.4c-12.2,7.7-37.5,11.7-62.7,11.7
	S24.5,111.5,12.4,103.8z"/>
<path class="st0" d="M12.4,30.1v26.5c0,5,22.1,14.7,62.7,14.7s62.7-9.7,62.7-14.7V30.1c-12.2,7.7-37.5,11.7-62.7,11.7
	S24.5,37.8,12.4,30.1z"/>
<rect x="32.2" y="73.1" class="st0" width="85.6" height="49.8"/>
<path class="st1" d="M116.3,74.7v46.7H33.8V74.7H116.3 M119.4,71.5H30.6v53h88.8V71.5z"/>
<path class="st1" d="M48.8,108.8c-1.8,0-3.6-0.3-5.2-0.8c-1.5-0.4-2.8-1.2-4-2.2l2-3.3c1,0.7,2.1,1.3,3.3,1.7
	c1.2,0.4,2.4,0.7,3.6,0.7c1.6,0,2.8-0.3,3.6-0.9c0.8-0.6,1.2-1.5,1.2-2.8c0-0.4,0-0.8-0.1-1.2c-0.1-0.3-0.3-0.7-0.5-0.9
	c-0.3-0.4-0.7-0.7-1.1-0.9c-0.6-0.3-1.3-0.6-2-0.9l-1.8-0.6c-0.9-0.3-1.5-0.5-1.9-0.6c-2.2-0.8-3.8-1.8-4.7-2.9
	c-1-1.1-1.5-2.6-1.5-4.6c0-1.4,0.4-2.8,1.2-4c0.8-1.1,2-2,3.3-2.4c1.5-0.5,3.1-0.8,4.6-0.8c2.4,0,4.2,0.2,5.5,0.7
	c1.4,0.5,2.6,1.3,3.7,2.4l-2.4,3c-1.5-1.4-3.5-2.1-6.2-2.1c-1.2,0-2.4,0.2-3.5,0.7c-0.9,0.4-1.4,1.3-1.4,2.3c0,0.4,0,0.8,0.1,1.2
	c0.1,0.4,0.3,0.7,0.5,0.9c0.3,0.4,0.7,0.6,1.2,0.9c0.7,0.3,1.3,0.6,2,0.8c0.3,0.1,0.9,0.3,1.9,0.6c1,0.3,1.7,0.6,2.1,0.7
	c2.1,0.9,3.6,1.8,4.5,3c0.8,1.1,1.3,2.7,1.3,4.6c0,1.2-0.2,2.4-0.8,3.5c-0.5,1-1.2,1.8-2.1,2.3c-0.9,0.6-1.9,1-3,1.3
	C51.2,108.7,50,108.8,48.8,108.8z"/>
<path class="st1" d="M82.2,115.5c-0.6-0.7-1.4-1.7-2.5-3c-0.9-1.2-1.8-2.4-2.6-3.7c-0.5,0.1-1.1,0.1-1.6,0.1c-4.1,0-7.4-1.2-9.7-3.7
	c-2.4-2.5-3.6-5.8-3.6-10c0-4.1,1.2-7.4,3.6-9.8c2.4-2.5,5.6-3.7,9.8-3.7c4,0,7.2,1.2,9.5,3.7c2.4,2.5,3.5,5.8,3.5,9.8
	c0,3.1-0.7,5.8-2,8c-1.3,2.2-3.2,3.8-5.6,4.7c1.3,2.1,2.8,4.1,4.5,5.9l-2.5,2.7L82.2,115.5z M81.5,102.3c1.4-1.7,2.1-4.1,2.1-7.3
	c0-3-0.7-5.4-2.1-7.1c-1.4-1.7-3.4-2.5-6.1-2.5c-2.7,0-4.7,0.8-6.1,2.5c-1.4,1.7-2.1,4-2.1,7.1c0,3.2,0.7,5.6,2.1,7.3
	s3.4,2.5,6.1,2.5C78.1,104.9,80.1,104,81.5,102.3L81.5,102.3z"/>
<path class="st1" d="M94,108.4V82h4.6v22.4h12.2v3.9H94z"/>
</svg>
