<?xml version="1.0" encoding="utf-8"?>
<!-- Generator: Adobe Illustrator 25.0.0, SVG Export Plug-In . SVG Version: 6.00 Build 0)  -->
<svg version="1.1" id="Capa_1" xmlns="http://www.w3.org/2000/svg" xmlns:xlink="http://www.w3.org/1999/xlink" x="0px" y="0px"
	 viewBox="0 0 150 150" style="enable-background:new 0 0 150 150;" xml:space="preserve">
<style type="text/css">
	.st0{fill:#3B4254;}
	.st1{fill:#FFFFFF;}
	.st2{fill:#8DB6FF;}
</style>
<g id="Capa_1_1_">
</g>
<g id="Capa_3">
</g>
<g id="Capa_2_1_">
	<g>
		<path class="st0" d="M130.1,135H19.9c-2.8,0-5-2.2-5-5V19.9c0-2.8,2.2-5,5-5h110c2.8,0,5,2.2,5,5v110
			C135,132.8,132.8,135,130.1,135z"/>
		<g>
			<polygon class="st1" points="33.8,68.2 44.6,68.2 44.6,29 57.7,29 57.7,20.5 21.5,20.5 21.5,29.2 33.1,29.2 			"/>
			<rect x="64.7" y="20.5" class="st1" width="10.3" height="47.8"/>
			<polygon class="st1" points="109.5,19.8 97.9,19.8 80.5,68.2 92.2,68.2 			"/>
			<polyline class="st1" points="115.9,68.2 98.6,19.8 110.2,19.8 127.5,68.2 			"/>
			<rect x="95" y="47.7" class="st1" width="20.8" height="9.1"/>
		</g>
		<polygon class="st2" points="44.4,127.1 34.8,127.1 19.8,82.7 29.4,82.7 		"/>
		<polyline class="st2" points="50.5,82.9 35.5,127.3 45.1,127.3 60.1,82.9 		"/>
		<rect x="76.8" y="82.5" class="st2" width="8.9" height="44.8"/>
		
			<rect x="64.3" y="87.2" transform="matrix(0.7601 -0.6498 0.6498 0.7601 -41.5231 69.153)" class="st2" width="17.2" height="7.3"/>
		<rect x="97.3" y="82.7" class="st2" width="32.1" height="7.5"/>
		<polygon class="st2" points="129.4,90.1 119.2,90.1 102.2,127.1 112.5,127.1 		"/>
	</g>
</g>
</svg>
