<?xml version="1.0" encoding="utf-8"?>
<!-- Generator: Adobe Illustrator 25.0.0, SVG Export Plug-In . SVG Version: 6.00 Build 0)  -->
<svg version="1.1" id="Capa_1" xmlns="http://www.w3.org/2000/svg" xmlns:xlink="http://www.w3.org/1999/xlink" x="0px" y="0px"
	 viewBox="0 0 150 150" style="enable-background:new 0 0 150 150;" xml:space="preserve">
<style type="text/css">
	.st0{fill:#017ACB;}
	.st1{fill:#FFFFFF;}
</style>
<g>
	<path class="st0" d="M15,15h120v120H15V15z"/>
	<path class="st1" d="M72.6,59.4h5.8v9.9H62.8v44.2l-0.4,0.1c-0.6,0.1-8,0.1-9.6,0l-1.3-0.1V69.4H36v-9.9l4.9-0.1
		c2.7,0,9.6,0,15.4,0S69.4,59.4,72.6,59.4z M116.5,108.9c-2.3,2.4-4.7,3.8-8.8,4.9c-1.8,0.5-2.1,0.5-6.1,0.5c-4,0-4.3,0-6.3-0.5
		c-5-1.3-9.1-3.8-11.9-7.4c-0.8-1-2.1-3.1-2.1-3.4c0-0.1,0.2-0.2,0.4-0.4c0.2-0.1,0.8-0.4,1.2-0.7c0.4-0.2,1.2-0.7,1.7-1
		c0.5-0.3,2-1.1,3.2-1.9c1.3-0.8,2.4-1.4,2.6-1.4c0.1,0,0.4,0.3,0.6,0.6c1.1,1.9,3.8,4.3,5.6,5.1c1.1,0.5,3.7,1,4.9,1
		c1.1,0,3.2-0.5,4.3-1c1.2-0.5,1.8-1.1,2.5-2.2c0.5-0.8,0.5-1,0.5-2.4c0-1.3-0.1-1.7-0.5-2.3c-1-1.7-2.5-2.6-8.2-5.2
		c-6-2.6-8.6-4.2-10.8-6.3c-1.6-1.6-1.9-2-2.9-4c-1.3-2.5-1.5-3.4-1.5-7.1c0-2.6,0-3.5,0.3-4.4c0.4-1.3,1.7-4,2.2-4.6
		c1.2-1.4,1.6-1.8,2.5-2.5c2.6-2.1,6.5-3.5,10.3-3.6c0.4,0,1.9,0.1,3.2,0.2c3.8,0.3,6.4,1.3,8.9,3.3c1.9,1.5,4.8,5,4.5,5.5
		c-0.2,0.3-7.7,5.3-8.2,5.4c-0.3,0.1-0.5,0-0.9-0.5c-2.6-3.1-3.6-3.7-6.1-3.9c-1.8-0.1-2.7,0.1-3.9,0.9c-1.2,0.8-1.8,2.1-1.8,3.8
		c0,2.5,1,3.8,4.6,5.5c2.3,1.1,4.3,2.1,4.5,2.1c0.2,0,5,2.4,6.3,3.2c5.8,3.4,8.2,7,8.8,13C120.7,101.8,119.4,105.9,116.5,108.9
		L116.5,108.9z"/>
</g>
</svg>
