<?xml version="1.0" encoding="utf-8"?>
<!-- Generator: Adobe Illustrator 25.0.0, SVG Export Plug-In . SVG Version: 6.00 Build 0)  -->
<svg version="1.1" id="Capa_1" xmlns="http://www.w3.org/2000/svg" xmlns:xlink="http://www.w3.org/1999/xlink" x="0px" y="0px"
	 viewBox="0 0 150 150" style="enable-background:new 0 0 150 150;" xml:space="preserve">
<style type="text/css">
	.st0{fill:url(#SVGID_1_);}
	.st1{fill:url(#SVGID_2_);}
</style>
<g>
	
		<linearGradient id="SVGID_1_" gradientUnits="userSpaceOnUse" x1="62.9851" y1="87.1533" x2="63.0136" y2="87.1187" gradientTransform="matrix(2454.3228 0 0 -2187.2434 -154543.2656 190640.8125)">
		<stop  offset="0" style="stop-color:#41D1FF"/>
		<stop  offset="1" style="stop-color:#BD34FE"/>
	</linearGradient>
	<path class="st0" d="M134.6,32.7L78.2,133.5c-1.2,2.1-4.2,2.1-5.3,0L15.4,32.7c-1.3-2.3,0.6-5,3.2-4.5L75,38.3
		c0.4,0.1,0.7,0.1,1.1,0l55.3-10.1C133.9,27.7,135.9,30.4,134.6,32.7z"/>
	
		<linearGradient id="SVGID_2_" gradientUnits="userSpaceOnUse" x1="62.2503" y1="87.031" x2="62.2537" y2="86.9885" gradientTransform="matrix(1125.4194 0 0 -2051.6592 -69975.5547 178574.8125)">
		<stop  offset="0" style="stop-color:#FFEA83"/>
		<stop  offset="8.299999e-02" style="stop-color:#FFDD35"/>
		<stop  offset="1" style="stop-color:#FFA800"/>
	</linearGradient>
	<path class="st1" d="M101.9,15l-41.7,8.2c-0.7,0.1-1.2,0.7-1.2,1.4l-2.6,43.3c-0.1,0.8,0.6,1.6,1.4,1.6c0.1,0,0.3,0,0.4,0l11.6-2.7
		c1.1-0.3,2.1,0.7,1.8,1.8l-3.5,16.9c-0.2,1.1,0.8,2.1,1.9,1.8l7.2-2.2c1.1-0.3,2.2,0.6,1.9,1.8l-5.5,26.5c-0.3,1.7,1.9,2.6,2.8,1.1
		l0.6-1l34-67.8c0.6-1.1-0.4-2.4-1.7-2.2l-12,2.3c-1.1,0.2-2.1-0.8-1.8-1.9l7.8-27C104,15.8,103,14.7,101.9,15L101.9,15z"/>
</g>
</svg>
