<?xml version="1.0" encoding="utf-8"?>
<!-- Generator: Adobe Illustrator 25.0.0, SVG Export Plug-In . SVG Version: 6.00 Build 0)  -->
<svg version="1.1" id="Capa_1" xmlns="http://www.w3.org/2000/svg" xmlns:xlink="http://www.w3.org/1999/xlink" x="0px" y="0px"
	 viewBox="0 0 150 150" style="enable-background:new 0 0 150 150;" xml:space="preserve">
<style type="text/css">
	.st0{fill:#2489CA;}
	.st1{fill:#1070B3;}
	.st2{fill:#0877B9;}
	.st3{fill:#3C99D4;}
</style>
<path class="st0" d="M11.2,55.5c0,0-3.2-2.3,0.6-5.3l8.9-7.9c0,0,2.5-2.7,5.2-0.3l81.7,61.8v29.7c0,0,0,4.7-6,4.1L11.2,55.5z"/>
<path class="st1" d="M32.3,74.7L11.2,93.8c0,0-2.2,1.6,0,4.5l9.8,8.9c0,0,2.3,2.5,5.8-0.3l22.3-16.9L32.3,74.7z"/>
<path class="st2" d="M69.3,74.8l38.6-29.5l-0.3-29.5c0,0-1.6-6.4-7.2-3.1L49.1,59.5L69.3,74.8z"/>
<path class="st3" d="M101.6,137.6c2.2,2.3,5,1.5,5,1.5l30.1-14.8c3.9-2.6,3.3-5.9,3.3-5.9V29.9c0-3.9-4-5.2-4-5.2l-26.1-12.6
	c-5.7-3.5-9.4,0.6-9.4,0.6s4.8-3.5,7.2,3.1v117.1c0,0.8-0.2,1.6-0.5,2.3c-0.7,1.4-2.2,2.7-5.8,2.1L101.6,137.6z"/>
</svg>
