<?xml version="1.0" encoding="utf-8"?>
<!-- Generator: Adobe Illustrator 25.0.0, SVG Export Plug-In . SVG Version: 6.00 Build 0)  -->
<svg version="1.1" id="Capa_1" xmlns="http://www.w3.org/2000/svg" xmlns:xlink="http://www.w3.org/1999/xlink" x="0px" y="0px"
	 viewBox="0 0 2500 2227" style="enable-background:new 0 0 2500 2227;" xml:space="preserve">
<style type="text/css">
	.st0{fill:#FFFFFF;}
	.st1{fill:#3498DB;}
</style>
<g>
	<rect x="554.37" y="410" class="st0" width="1487.27" height="1319.69"/>
	<path class="st1" d="M724.86,8.69c-67.07,0.15-132.72,38.22-166.48,96.3L33.24,1017.2C0,1075.43,0,1151.56,33.24,1209.79
		l525.14,912.22c33.76,58.08,99.41,96.16,166.48,96.3h1050.27c67.07-0.15,132.72-38.22,166.48-96.3l525.14-912.22
		c33.24-58.23,33.23-134.35,0-192.59l-525.14-912.21c-33.76-58.09-99.41-96.16-166.48-96.3L724.86,8.69z M734.4,542.35
		c1.45-0.15,2.96-0.15,4.4,0h181.15c8.18,0.27,15.66,4.7,19.81,11.76l307.31,547.62c1.55,2.72,2.54,5.72,2.91,8.83
		c0.39-3.1,1.38-6.11,2.93-8.83l306.57-547.62c4.3-7.26,12.1-11.73,20.54-11.76h181.16c16.04,0.14,28.05,20.34,20.54,34.54
		l-299.97,536.6l299.97,535.87c8.23,14.28-4.07,35.42-20.54,35.28h-181.16c-8.59-0.18-16.43-4.95-20.54-12.49l-306.57-547.63
		c-1.55-2.71-2.54-5.72-2.92-8.82c-0.38,3.11-1.37,6.11-2.92,8.83l-307.32,547.62c-3.97,7.32-11.47,12.06-19.79,12.49H738.79
		c-16.46,0.15-28.76-21-20.54-35.28l299.97-535.87L718.26,576.9C711.07,563.94,719.84,545.12,734.4,542.35L734.4,542.35z"/>
</g>
</svg>
