<?xml version="1.0" encoding="utf-8"?>
<!-- Generator: Adobe Illustrator 25.0.0, SVG Export Plug-In . SVG Version: 6.00 Build 0)  -->
<svg version="1.1" id="Layer_1" xmlns="http://www.w3.org/2000/svg" xmlns:xlink="http://www.w3.org/1999/xlink" x="0px" y="0px"
	 viewBox="0 0 150 150" style="enable-background:new 0 0 150 150;" xml:space="preserve">
<style type="text/css">
	.st0{fill:#5FAEEC;}
	.st1{fill:#215BA3;}
	.st2{fill:#0E50B6;}
</style>
<g>
	<path class="st0" d="M108.4,13.8H41.6c-1.5,0.3-2.8,1.3-3.6,2.7L5.8,72.2C5.3,73.1,5,74,5,75h70l35.1-60.6
		C109.6,14.1,109,13.9,108.4,13.8z M62.3,24.1L34,75H13.1L42,24c0.4-0.8,1.3-1.2,2.1-1.2h17.4C62.2,22.8,62.6,23.5,62.3,24.1z"/>
	<path class="st1" d="M75,75H33.8l28.4,49.8c0.3,0.6-0.1,1.4-0.8,1.4H44.1c-0.9,0-1.7-0.5-2.1-1.2L13.1,75H5c0,1,0.3,1.9,0.8,2.8
		l32.2,55.8c0.8,1.4,2.1,2.3,3.6,2.7h66.9c0.6-0.1,1.1-0.4,1.7-0.7L75,75z"/>
	<path class="st2" d="M144.2,72.2L112.4,17l-0.3-0.6c-0.5-0.8-1.1-1.5-1.9-1.9L75,75l35.1,60.6c0.7-0.4,1.3-1,1.7-1.6l3.9-6.6
		l28.6-49.5C145.3,76.1,145.3,73.9,144.2,72.2z M137.2,75.5l-5,7.9l-20.1,34.9c-0.4,0.6-1.3,0.7-1.7,0l-9.4-14.7
		c-0.2-0.3-0.2-0.7,0-1l15.9-28.2l-16-27.2c-0.2-0.3-0.2-0.7,0-1l9-16.1c0.4-0.7,1.3-0.7,1.7,0l15.9,27.6c0.1,0.1,0.2,0.2,0.3,0.3
		l9.2,16c0.1,0.1,0.1,0.2,0.1,0.3l0,0.1C137.4,74.8,137.4,75.2,137.2,75.5z"/>
</g>
</svg>
